<?xml version="1.0" encoding="utf-8" standalone="no"?>
<!DOCTYPE svg PUBLIC "-//W3C//DTD SVG 1.1//EN"
  "http://www.w3.org/Graphics/SVG/1.1/DTD/svg11.dtd">
<svg xmlns:xlink="http://www.w3.org/1999/xlink" width="691.2pt" height="345.6pt" viewBox="0 0 691.2 345.6" xmlns="http://www.w3.org/2000/svg" version="1.1">
 <metadata>
  <rdf:RDF xmlns:dc="http://purl.org/dc/elements/1.1/" xmlns:cc="http://creativecommons.org/ns#" xmlns:rdf="http://www.w3.org/1999/02/22-rdf-syntax-ns#">
   <cc:Work>
    <dc:type rdf:resource="http://purl.org/dc/dcmitype/StillImage"/>
    <dc:date>2022-10-25T18:07:37.009007</dc:date>
    <dc:format>image/svg+xml</dc:format>
    <dc:creator>
     <cc:Agent>
      <dc:title>Matplotlib v3.5.3, https://matplotlib.org/</dc:title>
     </cc:Agent>
    </dc:creator>
   </cc:Work>
  </rdf:RDF>
 </metadata>
 <defs>
  <style type="text/css">*{stroke-linejoin: round; stroke-linecap: butt}</style>
 </defs>
 <g id="figure_1">
  <g id="patch_1">
   <path d="M 0 345.6 
L 691.2 345.6 
L 691.2 0 
L 0 0 
z
" style="fill: #ffffff"/>
  </g>
  <g id="axes_1">
   <g id="patch_2">
    <path d="M 25.219464 330.147244 
L 688.247244 330.147244 
L 688.247244 2.952756 
L 25.219464 2.952756 
z
" style="fill: #ffffff"/>
   </g>
   <g id="matplotlib.axis_1">
    <g id="xtick_1">
     <g id="line2d_1">
      <path d="M 133.277727 330.147244 
L 133.277727 2.952756 
" clip-path="url(#p34047a0bd0)" style="fill: none; stroke: #000000; stroke-opacity: 0.1; stroke-width: 0.5; stroke-linecap: square"/>
     </g>
     <g id="line2d_2">
      <defs>
       <path id="m590f298ad2" d="M 0 0 
L 0 -2.5 
" style="stroke: #000000; stroke-width: 0.5"/>
      </defs>
      <g>
       <use xlink:href="#m590f298ad2" x="133.277727" y="330.147244" style="stroke: #000000; stroke-width: 0.5"/>
      </g>
     </g>
     <g id="text_1">
      <!-- $-5$ -->
      <g transform="translate(127.357727 339.725994)scale(0.08 -0.08)">
       <defs>
        <path id="DejaVuSans-2212" d="M 678 2272 
L 4684 2272 
L 4684 1741 
L 678 1741 
L 678 2272 
z
" transform="scale(0.015625)"/>
        <path id="DejaVuSans-35" d="M 691 4666 
L 3169 4666 
L 3169 4134 
L 1269 4134 
L 1269 2991 
Q 1406 3038 1543 3061 
Q 1681 3084 1819 3084 
Q 2600 3084 3056 2656 
Q 3513 2228 3513 1497 
Q 3513 744 3044 326 
Q 2575 -91 1722 -91 
Q 1428 -91 1123 -41 
Q 819 9 494 109 
L 494 744 
Q 775 591 1075 516 
Q 1375 441 1709 441 
Q 2250 441 2565 725 
Q 2881 1009 2881 1497 
Q 2881 1984 2565 2268 
Q 2250 2553 1709 2553 
Q 1456 2553 1204 2497 
Q 953 2441 691 2322 
L 691 4666 
z
" transform="scale(0.015625)"/>
       </defs>
       <use xlink:href="#DejaVuSans-2212" transform="translate(0 0.09375)"/>
       <use xlink:href="#DejaVuSans-35" transform="translate(83.789062 0.09375)"/>
      </g>
     </g>
    </g>
    <g id="xtick_2">
     <g id="line2d_3">
      <path d="M 246.370818 330.147244 
L 246.370818 2.952756 
" clip-path="url(#p34047a0bd0)" style="fill: none; stroke: #000000; stroke-opacity: 0.1; stroke-width: 0.5; stroke-linecap: square"/>
     </g>
     <g id="line2d_4">
      <g>
       <use xlink:href="#m590f298ad2" x="246.370818" y="330.147244" style="stroke: #000000; stroke-width: 0.5"/>
      </g>
     </g>
     <g id="text_2">
      <!-- $0$ -->
      <g transform="translate(243.810818 339.725994)scale(0.08 -0.08)">
       <defs>
        <path id="DejaVuSans-30" d="M 2034 4250 
Q 1547 4250 1301 3770 
Q 1056 3291 1056 2328 
Q 1056 1369 1301 889 
Q 1547 409 2034 409 
Q 2525 409 2770 889 
Q 3016 1369 3016 2328 
Q 3016 3291 2770 3770 
Q 2525 4250 2034 4250 
z
M 2034 4750 
Q 2819 4750 3233 4129 
Q 3647 3509 3647 2328 
Q 3647 1150 3233 529 
Q 2819 -91 2034 -91 
Q 1250 -91 836 529 
Q 422 1150 422 2328 
Q 422 3509 836 4129 
Q 1250 4750 2034 4750 
z
" transform="scale(0.015625)"/>
       </defs>
       <use xlink:href="#DejaVuSans-30" transform="translate(0 0.78125)"/>
      </g>
     </g>
    </g>
    <g id="xtick_3">
     <g id="line2d_5">
      <path d="M 359.463909 330.147244 
L 359.463909 2.952756 
" clip-path="url(#p34047a0bd0)" style="fill: none; stroke: #000000; stroke-opacity: 0.1; stroke-width: 0.5; stroke-linecap: square"/>
     </g>
     <g id="line2d_6">
      <g>
       <use xlink:href="#m590f298ad2" x="359.463909" y="330.147244" style="stroke: #000000; stroke-width: 0.5"/>
      </g>
     </g>
     <g id="text_3">
      <!-- $5$ -->
      <g transform="translate(356.903909 339.725994)scale(0.08 -0.08)">
       <use xlink:href="#DejaVuSans-35" transform="translate(0 0.09375)"/>
      </g>
     </g>
    </g>
    <g id="xtick_4">
     <g id="line2d_7">
      <path d="M 472.557 330.147244 
L 472.557 2.952756 
" clip-path="url(#p34047a0bd0)" style="fill: none; stroke: #000000; stroke-opacity: 0.1; stroke-width: 0.5; stroke-linecap: square"/>
     </g>
     <g id="line2d_8">
      <g>
       <use xlink:href="#m590f298ad2" x="472.557" y="330.147244" style="stroke: #000000; stroke-width: 0.5"/>
      </g>
     </g>
     <g id="text_4">
      <!-- $10$ -->
      <g transform="translate(467.437 339.725994)scale(0.08 -0.08)">
       <defs>
        <path id="DejaVuSans-31" d="M 794 531 
L 1825 531 
L 1825 4091 
L 703 3866 
L 703 4441 
L 1819 4666 
L 2450 4666 
L 2450 531 
L 3481 531 
L 3481 0 
L 794 0 
L 794 531 
z
" transform="scale(0.015625)"/>
       </defs>
       <use xlink:href="#DejaVuSans-31" transform="translate(0 0.78125)"/>
       <use xlink:href="#DejaVuSans-30" transform="translate(63.623047 0.78125)"/>
      </g>
     </g>
    </g>
    <g id="xtick_5">
     <g id="line2d_9">
      <path d="M 585.650091 330.147244 
L 585.650091 2.952756 
" clip-path="url(#p34047a0bd0)" style="fill: none; stroke: #000000; stroke-opacity: 0.1; stroke-width: 0.5; stroke-linecap: square"/>
     </g>
     <g id="line2d_10">
      <g>
       <use xlink:href="#m590f298ad2" x="585.650091" y="330.147244" style="stroke: #000000; stroke-width: 0.5"/>
      </g>
     </g>
     <g id="text_5">
      <!-- $15$ -->
      <g transform="translate(580.530091 339.725994)scale(0.08 -0.08)">
       <use xlink:href="#DejaVuSans-31" transform="translate(0 0.09375)"/>
       <use xlink:href="#DejaVuSans-35" transform="translate(63.623047 0.09375)"/>
      </g>
     </g>
    </g>
   </g>
   <g id="matplotlib.axis_2">
    <g id="ytick_1">
     <g id="line2d_11">
      <path d="M 25.219464 320.890047 
L 688.247244 320.890047 
" clip-path="url(#p34047a0bd0)" style="fill: none; stroke: #000000; stroke-opacity: 0.1; stroke-width: 0.5; stroke-linecap: square"/>
     </g>
     <g id="line2d_12">
      <defs>
       <path id="mdf6457b1a6" d="M 0 0 
L 2.5 0 
" style="stroke: #000000; stroke-width: 0.5"/>
      </defs>
      <g>
       <use xlink:href="#mdf6457b1a6" x="25.219464" y="320.890047" style="stroke: #000000; stroke-width: 0.5"/>
      </g>
     </g>
     <g id="text_6">
      <!-- $0.00$ -->
      <g transform="translate(3.879464 323.929422)scale(0.08 -0.08)">
       <defs>
        <path id="DejaVuSans-2e" d="M 684 794 
L 1344 794 
L 1344 0 
L 684 0 
L 684 794 
z
" transform="scale(0.015625)"/>
       </defs>
       <use xlink:href="#DejaVuSans-30" transform="translate(0 0.78125)"/>
       <use xlink:href="#DejaVuSans-2e" transform="translate(63.623047 0.78125)"/>
       <use xlink:href="#DejaVuSans-30" transform="translate(95.410156 0.78125)"/>
       <use xlink:href="#DejaVuSans-30" transform="translate(159.033203 0.78125)"/>
      </g>
     </g>
    </g>
    <g id="ytick_2">
     <g id="line2d_13">
      <path d="M 25.219464 247.184175 
L 688.247244 247.184175 
" clip-path="url(#p34047a0bd0)" style="fill: none; stroke: #000000; stroke-opacity: 0.1; stroke-width: 0.5; stroke-linecap: square"/>
     </g>
     <g id="line2d_14">
      <g>
       <use xlink:href="#mdf6457b1a6" x="25.219464" y="247.184175" style="stroke: #000000; stroke-width: 0.5"/>
      </g>
     </g>
     <g id="text_7">
      <!-- $0.05$ -->
      <g transform="translate(3.879464 250.22355)scale(0.08 -0.08)">
       <use xlink:href="#DejaVuSans-30" transform="translate(0 0.78125)"/>
       <use xlink:href="#DejaVuSans-2e" transform="translate(63.623047 0.78125)"/>
       <use xlink:href="#DejaVuSans-30" transform="translate(95.410156 0.78125)"/>
       <use xlink:href="#DejaVuSans-35" transform="translate(159.033203 0.78125)"/>
      </g>
     </g>
    </g>
    <g id="ytick_3">
     <g id="line2d_15">
      <path d="M 25.219464 173.478302 
L 688.247244 173.478302 
" clip-path="url(#p34047a0bd0)" style="fill: none; stroke: #000000; stroke-opacity: 0.1; stroke-width: 0.5; stroke-linecap: square"/>
     </g>
     <g id="line2d_16">
      <g>
       <use xlink:href="#mdf6457b1a6" x="25.219464" y="173.478302" style="stroke: #000000; stroke-width: 0.5"/>
      </g>
     </g>
     <g id="text_8">
      <!-- $0.10$ -->
      <g transform="translate(3.879464 176.517677)scale(0.08 -0.08)">
       <use xlink:href="#DejaVuSans-30" transform="translate(0 0.78125)"/>
       <use xlink:href="#DejaVuSans-2e" transform="translate(63.623047 0.78125)"/>
       <use xlink:href="#DejaVuSans-31" transform="translate(95.410156 0.78125)"/>
       <use xlink:href="#DejaVuSans-30" transform="translate(159.033203 0.78125)"/>
      </g>
     </g>
    </g>
    <g id="ytick_4">
     <g id="line2d_17">
      <path d="M 25.219464 99.77243 
L 688.247244 99.77243 
" clip-path="url(#p34047a0bd0)" style="fill: none; stroke: #000000; stroke-opacity: 0.1; stroke-width: 0.5; stroke-linecap: square"/>
     </g>
     <g id="line2d_18">
      <g>
       <use xlink:href="#mdf6457b1a6" x="25.219464" y="99.77243" style="stroke: #000000; stroke-width: 0.5"/>
      </g>
     </g>
     <g id="text_9">
      <!-- $0.15$ -->
      <g transform="translate(3.879464 102.811805)scale(0.08 -0.08)">
       <use xlink:href="#DejaVuSans-30" transform="translate(0 0.78125)"/>
       <use xlink:href="#DejaVuSans-2e" transform="translate(63.623047 0.78125)"/>
       <use xlink:href="#DejaVuSans-31" transform="translate(95.410156 0.78125)"/>
       <use xlink:href="#DejaVuSans-35" transform="translate(159.033203 0.78125)"/>
      </g>
     </g>
    </g>
    <g id="ytick_5">
     <g id="line2d_19">
      <path d="M 25.219464 26.066557 
L 688.247244 26.066557 
" clip-path="url(#p34047a0bd0)" style="fill: none; stroke: #000000; stroke-opacity: 0.1; stroke-width: 0.5; stroke-linecap: square"/>
     </g>
     <g id="line2d_20">
      <g>
       <use xlink:href="#mdf6457b1a6" x="25.219464" y="26.066557" style="stroke: #000000; stroke-width: 0.5"/>
      </g>
     </g>
     <g id="text_10">
      <!-- $0.20$ -->
      <g transform="translate(4.279464 29.105932)scale(0.08 -0.08)">
       <defs>
        <path id="DejaVuSans-32" d="M 1228 531 
L 3431 531 
L 3431 0 
L 469 0 
L 469 531 
Q 828 903 1448 1529 
Q 2069 2156 2228 2338 
Q 2531 2678 2651 2914 
Q 2772 3150 2772 3378 
Q 2772 3750 2511 3984 
Q 2250 4219 1831 4219 
Q 1534 4219 1204 4116 
Q 875 4013 500 3803 
L 500 4441 
Q 881 4594 1212 4672 
Q 1544 4750 1819 4750 
Q 2544 4750 2975 4387 
Q 3406 4025 3406 3419 
Q 3406 3131 3298 2873 
Q 3191 2616 2906 2266 
Q 2828 2175 2409 1742 
Q 1991 1309 1228 531 
z
" transform="scale(0.015625)"/>
       </defs>
       <use xlink:href="#DejaVuSans-30" transform="translate(0 0.78125)"/>
       <use xlink:href="#DejaVuSans-2e" transform="translate(63.623047 0.78125)"/>
       <use xlink:href="#DejaVuSans-32" transform="translate(89.910156 0.78125)"/>
       <use xlink:href="#DejaVuSans-30" transform="translate(153.533203 0.78125)"/>
      </g>
     </g>
    </g>
   </g>
   <g id="line2d_21">
    <path d="M 75.297321 320.885277 
L 92.139508 320.790353 
L 99.624925 320.540704 
L 105.238987 320.110281 
L 108.981695 319.642724 
L 112.724404 318.996716 
L 116.467112 318.162871 
L 122.081174 316.616399 
L 129.566591 314.410242 
L 133.309299 313.506766 
L 137.052007 312.891968 
L 140.794715 312.634813 
L 144.537424 312.733007 
L 148.280132 313.097517 
L 153.894194 313.735642 
L 155.765548 313.842691 
L 157.636902 313.832875 
L 159.508256 313.664668 
L 161.379611 313.295727 
L 163.250965 312.683818 
L 165.122319 311.787798 
L 166.993673 310.568609 
L 168.865027 308.990316 
L 170.736381 307.021147 
L 172.607735 304.634519 
L 174.479089 301.809987 
L 176.350443 298.534068 
L 178.221798 294.800857 
L 180.093152 290.612371 
L 181.964506 285.978568 
L 183.83586 280.916992 
L 185.707214 275.452048 
L 189.449922 263.437258 
L 193.19263 250.219647 
L 196.935339 236.105877 
L 202.549401 213.862652 
L 221.262942 138.161615 
L 225.00565 124.005907 
L 228.748359 110.667354 
L 232.491067 98.403026 
L 234.362421 92.759824 
L 236.233775 87.490961 
L 238.105129 82.633635 
L 239.976483 78.224815 
L 241.847837 74.299918 
L 243.719191 70.891012 
L 245.590546 68.024626 
L 247.4619 65.719317 
L 249.333254 63.983216 
L 251.204608 62.811807 
L 253.075962 62.186247 
L 254.947316 62.072472 
L 256.81867 62.421317 
L 258.690024 63.169764 
L 260.561378 64.243348 
L 262.432733 65.559607 
L 271.789503 72.90637 
L 273.660857 74.074121 
L 275.532211 75.062056 
L 277.403565 75.874942 
L 281.146274 77.089244 
L 286.760336 78.685699 
L 288.63169 79.428827 
L 290.503044 80.394108 
L 292.374398 81.644276 
L 294.245752 83.233271 
L 296.117107 85.204614 
L 297.988461 87.590709 
L 299.859815 90.412952 
L 301.731169 93.682476 
L 303.602523 97.401319 
L 305.473877 101.56377 
L 307.345231 106.157703 
L 309.216585 111.165725 
L 311.087939 116.566043 
L 314.830648 128.437476 
L 318.573356 141.524608 
L 322.316064 155.524207 
L 337.286897 213.061727 
L 341.029605 225.845471 
L 344.772313 237.310412 
L 346.643668 242.479047 
L 348.515022 247.248329 
L 350.386376 251.610488 
L 352.25773 255.566474 
L 354.129084 259.126453 
L 356.000438 262.309998 
L 357.871792 265.145884 
L 359.743146 267.671381 
L 361.6145 269.931032 
L 365.357209 273.85643 
L 376.585333 284.50771 
L 380.328042 288.601662 
L 384.07075 293.049903 
L 393.42752 304.439645 
L 397.170229 308.460335 
L 399.041583 310.256023 
L 400.912937 311.890145 
L 402.784291 313.356078 
L 404.655645 314.652619 
L 406.526999 315.783369 
L 408.398353 316.75593 
L 410.269707 317.581004 
L 412.141061 318.271477 
L 415.88377 319.305913 
L 419.626478 319.975223 
L 423.369186 320.385976 
L 428.983248 320.701432 
L 436.468665 320.846994 
L 447.69679 320.885078 
L 447.69679 320.885078 
" clip-path="url(#p34047a0bd0)" style="fill: none; stroke: #009afa"/>
   </g>
   <g id="line2d_22">
    <path d="M 107.104958 320.883737 
L 120.109273 320.798263 
L 126.611431 320.534335 
L 129.86251 320.237264 
L 133.113589 319.745556 
L 136.364668 318.970699 
L 139.615747 317.806671 
L 141.241286 317.042429 
L 142.866826 316.136896 
L 144.492365 315.075592 
L 146.117905 313.844812 
L 147.743444 312.432007 
L 149.368984 310.826135 
L 150.994523 309.017955 
L 152.620063 307.000271 
L 154.245602 304.768129 
L 155.871141 302.318978 
L 157.496681 299.652831 
L 160.74776 293.683583 
L 163.998839 286.92036 
L 167.249918 279.483135 
L 172.126536 267.512515 
L 177.003154 255.493703 
L 180.254233 248.102879 
L 181.879773 244.744277 
L 183.505312 241.667667 
L 185.130852 238.905846 
L 186.756391 236.480563 
L 188.381931 234.400824 
L 190.00747 232.661993 
L 191.63301 231.245826 
L 193.258549 230.121498 
L 194.884089 229.24755 
L 196.509628 228.574605 
L 199.760707 227.614177 
L 204.637325 226.353759 
L 207.888404 225.157503 
L 209.513944 224.37674 
L 211.139483 223.457046 
L 212.765023 222.391089 
L 214.390562 221.173243 
L 216.016102 219.797315 
L 217.641641 218.254586 
L 219.26718 216.532385 
L 220.89272 214.613344 
L 222.518259 212.47535 
L 224.143799 210.092179 
L 225.769338 207.434661 
L 227.394878 204.472233 
L 229.020417 201.174667 
L 230.645957 197.513809 
L 232.271496 193.465159 
L 233.897036 189.009209 
L 235.522575 184.132474 
L 237.148115 178.828224 
L 238.773654 173.096964 
L 242.024733 160.393155 
L 245.275812 146.177567 
L 248.526891 130.730128 
L 253.403509 106.150785 
L 258.280128 81.466778 
L 261.531206 65.922385 
L 264.782285 51.74658 
L 266.407825 45.314872 
L 268.033364 39.381234 
L 269.658904 33.980747 
L 271.284443 29.140723 
L 272.909983 24.881752 
L 274.535522 21.219133 
L 276.161062 18.164495 
L 277.786601 15.727418 
L 279.41214 13.91683 
L 281.03768 12.742001 
L 282.663219 12.212977 
L 284.288759 12.340388 
L 285.914298 13.134601 
L 287.539838 14.604303 
L 289.165377 16.754651 
L 290.790917 19.585193 
L 292.416456 23.087805 
L 294.041996 27.244901 
L 295.667535 32.028144 
L 297.293075 37.397867 
L 298.918614 43.303317 
L 302.169693 56.470351 
L 305.420772 70.962197 
L 318.425088 131.313584 
L 323.301706 152.074491 
L 326.552785 165.10664 
L 329.803864 177.4987 
L 333.054943 189.234173 
L 336.306022 200.268591 
L 339.557101 210.543246 
L 342.808179 220.006547 
L 346.059258 228.633748 
L 349.310337 236.441049 
L 352.561416 243.494074 
L 355.812495 249.910949 
L 359.063574 255.857797 
L 373.693429 281.678873 
L 381.821127 296.558544 
L 385.072205 301.972122 
L 388.323284 306.753032 
L 389.948824 308.858925 
L 391.574363 310.760827 
L 393.199903 312.455311 
L 394.825442 313.944472 
L 396.450982 315.235316 
L 398.076521 316.338936 
L 399.702061 317.269556 
L 401.3276 318.043543 
L 402.95314 318.678448 
L 406.204218 319.602106 
L 409.455297 320.175421 
L 412.706376 320.512423 
L 417.582995 320.757758 
L 425.710692 320.871604 
L 430.58731 320.883248 
L 430.58731 320.883248 
" clip-path="url(#p34047a0bd0)" style="fill: none; stroke: #e36f47"/>
   </g>
   <g id="patch_3">
    <path d="M 25.219464 330.147244 
L 25.219464 2.952756 
" style="fill: none; stroke: #000000; stroke-linejoin: miter; stroke-linecap: square"/>
   </g>
   <g id="patch_4">
    <path d="M 25.219464 330.147244 
L 688.247244 330.147244 
" style="fill: none; stroke: #000000; stroke-linejoin: miter; stroke-linecap: square"/>
   </g>
   <g id="line2d_23">
    <path d="M 59.359384 320.886136 
L 84.604075 320.774606 
L 94.701952 320.502158 
L 102.275359 320.031894 
L 107.324297 319.509388 
L 112.373235 318.760716 
L 117.422174 317.73921 
L 122.471112 316.411437 
L 127.52005 314.765728 
L 132.568988 312.817133 
L 137.617926 310.605836 
L 142.666865 308.187496 
L 150.240272 304.285193 
L 157.813679 300.106729 
L 162.862617 297.103396 
L 167.911556 293.808988 
L 172.960494 290.082162 
L 175.484963 288.008386 
L 178.009432 285.769503 
L 180.533901 283.348883 
L 183.05837 280.732441 
L 185.582839 277.9093 
L 188.107308 274.87233 
L 190.631777 271.618562 
L 193.156247 268.149481 
L 195.680716 264.4712 
L 200.729654 256.535061 
L 205.778592 247.952886 
L 213.351999 234.355673 
L 220.925407 220.784165 
L 225.974345 212.328967 
L 228.498814 208.412168 
L 231.023283 204.756762 
L 233.547752 201.397618 
L 236.072221 198.362973 
L 238.59669 195.672801 
L 241.121159 193.337327 
L 243.645628 191.355785 
L 246.170098 189.715516 
L 248.694567 188.391491 
L 251.219036 187.346318 
L 253.743505 186.530785 
L 258.792443 185.339734 
L 263.841381 184.242486 
L 266.36585 183.52785 
L 268.890319 182.594693 
L 271.414789 181.367419 
L 273.939258 179.778643 
L 276.463727 177.772424 
L 278.988196 175.307271 
L 281.512665 172.358801 
L 284.037134 168.921912 
L 286.561603 165.012358 
L 289.086072 160.667581 
L 291.610541 155.946726 
L 296.65948 145.715519 
L 301.708418 135.167975 
L 304.232887 130.097606 
L 306.757356 125.346363 
L 309.281825 121.050082 
L 311.806294 117.33654 
L 314.330763 114.320128 
L 316.855232 112.097047 
L 319.379701 110.741288 
L 321.90417 110.30164 
L 324.42864 110.799908 
L 326.953109 112.230419 
L 329.477578 114.560829 
L 332.002047 117.734159 
L 334.526516 121.671896 
L 337.050985 126.27795 
L 339.575454 131.443212 
L 342.099923 137.050439 
L 347.148861 149.110571 
L 354.722269 167.641917 
L 359.771207 179.249423 
L 362.295676 184.653278 
L 364.820145 189.752278 
L 367.344614 194.538644 
L 369.869083 199.01986 
L 372.393552 203.216809 
L 374.918021 207.16148 
L 379.96696 214.461442 
L 387.540367 224.651713 
L 395.113774 234.948582 
L 400.162712 242.199248 
L 407.73612 253.595449 
L 415.309527 264.968121 
L 420.358465 272.034165 
L 422.882934 275.303713 
L 425.407403 278.360604 
L 427.931873 281.186245 
L 430.456342 283.770389 
L 432.980811 286.111383 
L 435.50528 288.215885 
L 438.029749 290.098125 
L 440.554218 291.778746 
L 443.078687 293.283357 
L 448.127625 295.881788 
L 453.176563 298.133552 
L 468.323378 304.622546 
L 485.994662 312.585624 
L 491.0436 314.542236 
L 496.092538 316.216011 
L 501.141476 317.578452 
L 506.190414 318.634317 
L 511.239353 319.413875 
L 516.288291 319.962519 
L 523.861698 320.46248 
L 531.435105 320.710675 
L 544.057451 320.855922 
L 561.728735 320.886297 
L 561.728735 320.886297 
" clip-path="url(#p34047a0bd0)" style="fill: none; stroke: #3ea44e"/>
   </g>
   <g id="line2d_24">
    <path d="M 43.984401 320.887023 
L 72.273251 320.803314 
L 84.846074 320.567843 
L 94.27569 320.15894 
L 103.705307 319.449808 
L 113.134924 318.426782 
L 131.994157 316.169051 
L 138.280568 315.709485 
L 144.566979 315.535441 
L 150.85339 315.656533 
L 157.139801 316.009721 
L 169.712624 316.83435 
L 175.999035 316.91494 
L 179.14224 316.780583 
L 182.285446 316.49682 
L 185.428651 316.041338 
L 188.571857 315.394463 
L 191.715063 314.539717 
L 194.858268 313.464365 
L 198.001474 312.159937 
L 201.144679 310.622716 
L 204.287885 308.854153 
L 207.43109 306.861154 
L 210.574296 304.656214 
L 213.717501 302.257316 
L 220.003913 296.974566 
L 226.290324 291.245311 
L 238.863146 279.492503 
L 245.149557 273.889377 
L 251.435968 268.578259 
L 270.295201 253.117771 
L 276.581613 247.472761 
L 282.868024 241.42072 
L 292.29764 231.826157 
L 301.727257 222.187952 
L 311.156874 212.878687 
L 320.58649 203.586247 
L 326.872901 197.034494 
L 333.159313 189.986171 
L 339.445724 182.417669 
L 348.87534 170.459963 
L 355.161751 162.532731 
L 361.448163 155.044438 
L 364.591368 151.560399 
L 367.734574 148.291189 
L 370.877779 145.262092 
L 374.020985 142.495048 
L 377.16419 140.010278 
L 380.307396 137.828064 
L 383.450601 135.970367 
L 386.593807 134.461999 
L 389.737013 133.331124 
L 392.880218 132.608946 
L 396.023424 132.328594 
L 399.166629 132.523278 
L 402.309835 133.223939 
L 405.45304 134.456661 
L 408.596246 136.240172 
L 411.739451 138.58373 
L 414.882657 141.485673 
L 418.025863 144.932789 
L 421.169068 148.900601 
L 424.312274 153.354503 
L 427.455479 158.251607 
L 430.598685 163.543079 
L 433.74189 169.176661 
L 440.028301 181.258272 
L 446.314713 194.092042 
L 468.317151 240.192127 
L 474.603563 252.512648 
L 477.746768 258.354672 
L 480.889974 263.941359 
L 484.033179 269.244672 
L 487.176385 274.241307 
L 490.31959 278.913348 
L 493.462796 283.248494 
L 496.606001 287.239824 
L 499.749207 290.885194 
L 502.892413 294.186367 
L 506.035618 297.148068 
L 509.178824 299.777126 
L 512.322029 302.081848 
L 515.465235 304.071735 
L 518.60844 305.757571 
L 521.751646 307.15184 
L 524.894851 308.26938 
L 528.038057 309.128128 
L 531.181263 309.749802 
L 534.324468 310.160337 
L 537.467674 310.389967 
L 543.754085 310.446265 
L 559.470112 310.007248 
L 565.756524 310.276109 
L 568.899729 310.578129 
L 575.18614 311.513761 
L 581.472551 312.809271 
L 600.331785 317.21934 
L 606.618196 318.381163 
L 612.904607 319.274335 
L 619.191018 319.909916 
L 625.477429 320.330102 
L 634.907046 320.674078 
L 647.479868 320.840966 
L 669.482307 320.886921 
L 669.482307 320.886921 
" clip-path="url(#p34047a0bd0)" style="fill: none; stroke: #c371d2"/>
   </g>
   <g id="legend_1">
    <g id="patch_5">
     <path d="M 600.978494 62.722756 
L 684.247244 62.722756 
L 684.247244 6.952756 
L 600.978494 6.952756 
z
" style="fill: #ffffff; stroke: #000000; stroke-linejoin: miter"/>
    </g>
    <g id="line2d_25">
     <path d="M 607.378494 16.631506 
L 615.378494 16.631506 
L 623.378494 16.631506 
" style="fill: none; stroke: #009afa; stroke-linejoin: miter"/>
    </g>
    <g id="text_11">
     <!-- Earth Diet 1 -->
     <g transform="translate(629.778494 19.431506)scale(0.08 -0.08)">
      <defs>
       <path id="DejaVuSans-45" d="M 628 4666 
L 3578 4666 
L 3578 4134 
L 1259 4134 
L 1259 2753 
L 3481 2753 
L 3481 2222 
L 1259 2222 
L 1259 531 
L 3634 531 
L 3634 0 
L 628 0 
L 628 4666 
z
" transform="scale(0.015625)"/>
       <path id="DejaVuSans-61" d="M 2194 1759 
Q 1497 1759 1228 1600 
Q 959 1441 959 1056 
Q 959 750 1161 570 
Q 1363 391 1709 391 
Q 2188 391 2477 730 
Q 2766 1069 2766 1631 
L 2766 1759 
L 2194 1759 
z
M 3341 1997 
L 3341 0 
L 2766 0 
L 2766 531 
Q 2569 213 2275 61 
Q 1981 -91 1556 -91 
Q 1019 -91 701 211 
Q 384 513 384 1019 
Q 384 1609 779 1909 
Q 1175 2209 1959 2209 
L 2766 2209 
L 2766 2266 
Q 2766 2663 2505 2880 
Q 2244 3097 1772 3097 
Q 1472 3097 1187 3025 
Q 903 2953 641 2809 
L 641 3341 
Q 956 3463 1253 3523 
Q 1550 3584 1831 3584 
Q 2591 3584 2966 3190 
Q 3341 2797 3341 1997 
z
" transform="scale(0.015625)"/>
       <path id="DejaVuSans-72" d="M 2631 2963 
Q 2534 3019 2420 3045 
Q 2306 3072 2169 3072 
Q 1681 3072 1420 2755 
Q 1159 2438 1159 1844 
L 1159 0 
L 581 0 
L 581 3500 
L 1159 3500 
L 1159 2956 
Q 1341 3275 1631 3429 
Q 1922 3584 2338 3584 
Q 2397 3584 2469 3576 
Q 2541 3569 2628 3553 
L 2631 2963 
z
" transform="scale(0.015625)"/>
       <path id="DejaVuSans-74" d="M 1172 4494 
L 1172 3500 
L 2356 3500 
L 2356 3053 
L 1172 3053 
L 1172 1153 
Q 1172 725 1289 603 
Q 1406 481 1766 481 
L 2356 481 
L 2356 0 
L 1766 0 
Q 1100 0 847 248 
Q 594 497 594 1153 
L 594 3053 
L 172 3053 
L 172 3500 
L 594 3500 
L 594 4494 
L 1172 4494 
z
" transform="scale(0.015625)"/>
       <path id="DejaVuSans-68" d="M 3513 2113 
L 3513 0 
L 2938 0 
L 2938 2094 
Q 2938 2591 2744 2837 
Q 2550 3084 2163 3084 
Q 1697 3084 1428 2787 
Q 1159 2491 1159 1978 
L 1159 0 
L 581 0 
L 581 4863 
L 1159 4863 
L 1159 2956 
Q 1366 3272 1645 3428 
Q 1925 3584 2291 3584 
Q 2894 3584 3203 3211 
Q 3513 2838 3513 2113 
z
" transform="scale(0.015625)"/>
       <path id="DejaVuSans-20" transform="scale(0.015625)"/>
       <path id="DejaVuSans-44" d="M 1259 4147 
L 1259 519 
L 2022 519 
Q 2988 519 3436 956 
Q 3884 1394 3884 2338 
Q 3884 3275 3436 3711 
Q 2988 4147 2022 4147 
L 1259 4147 
z
M 628 4666 
L 1925 4666 
Q 3281 4666 3915 4102 
Q 4550 3538 4550 2338 
Q 4550 1131 3912 565 
Q 3275 0 1925 0 
L 628 0 
L 628 4666 
z
" transform="scale(0.015625)"/>
       <path id="DejaVuSans-69" d="M 603 3500 
L 1178 3500 
L 1178 0 
L 603 0 
L 603 3500 
z
M 603 4863 
L 1178 4863 
L 1178 4134 
L 603 4134 
L 603 4863 
z
" transform="scale(0.015625)"/>
       <path id="DejaVuSans-65" d="M 3597 1894 
L 3597 1613 
L 953 1613 
Q 991 1019 1311 708 
Q 1631 397 2203 397 
Q 2534 397 2845 478 
Q 3156 559 3463 722 
L 3463 178 
Q 3153 47 2828 -22 
Q 2503 -91 2169 -91 
Q 1331 -91 842 396 
Q 353 884 353 1716 
Q 353 2575 817 3079 
Q 1281 3584 2069 3584 
Q 2775 3584 3186 3129 
Q 3597 2675 3597 1894 
z
M 3022 2063 
Q 3016 2534 2758 2815 
Q 2500 3097 2075 3097 
Q 1594 3097 1305 2825 
Q 1016 2553 972 2059 
L 3022 2063 
z
" transform="scale(0.015625)"/>
      </defs>
      <use xlink:href="#DejaVuSans-45"/>
      <use xlink:href="#DejaVuSans-61" x="63.183594"/>
      <use xlink:href="#DejaVuSans-72" x="124.462891"/>
      <use xlink:href="#DejaVuSans-74" x="165.576172"/>
      <use xlink:href="#DejaVuSans-68" x="204.785156"/>
      <use xlink:href="#DejaVuSans-20" x="268.164062"/>
      <use xlink:href="#DejaVuSans-44" x="299.951172"/>
      <use xlink:href="#DejaVuSans-69" x="376.953125"/>
      <use xlink:href="#DejaVuSans-65" x="404.736328"/>
      <use xlink:href="#DejaVuSans-74" x="466.259766"/>
      <use xlink:href="#DejaVuSans-20" x="505.46875"/>
      <use xlink:href="#DejaVuSans-31" x="537.255859"/>
     </g>
    </g>
    <g id="line2d_26">
     <path d="M 607.378494 28.374006 
L 615.378494 28.374006 
L 623.378494 28.374006 
" style="fill: none; stroke: #e36f47; stroke-linejoin: miter"/>
    </g>
    <g id="text_12">
     <!-- Earth Diet 2 -->
     <g transform="translate(629.778494 31.174006)scale(0.08 -0.08)">
      <use xlink:href="#DejaVuSans-45"/>
      <use xlink:href="#DejaVuSans-61" x="63.183594"/>
      <use xlink:href="#DejaVuSans-72" x="124.462891"/>
      <use xlink:href="#DejaVuSans-74" x="165.576172"/>
      <use xlink:href="#DejaVuSans-68" x="204.785156"/>
      <use xlink:href="#DejaVuSans-20" x="268.164062"/>
      <use xlink:href="#DejaVuSans-44" x="299.951172"/>
      <use xlink:href="#DejaVuSans-69" x="376.953125"/>
      <use xlink:href="#DejaVuSans-65" x="404.736328"/>
      <use xlink:href="#DejaVuSans-74" x="466.259766"/>
      <use xlink:href="#DejaVuSans-20" x="505.46875"/>
      <use xlink:href="#DejaVuSans-32" x="537.255859"/>
     </g>
    </g>
    <g id="line2d_27">
     <path d="M 607.378494 40.116506 
L 615.378494 40.116506 
L 623.378494 40.116506 
" style="fill: none; stroke: #3ea44e; stroke-linejoin: miter"/>
    </g>
    <g id="text_13">
     <!-- Titan Diet 1 -->
     <g transform="translate(629.778494 42.916506)scale(0.08 -0.08)">
      <defs>
       <path id="DejaVuSans-54" d="M -19 4666 
L 3928 4666 
L 3928 4134 
L 2272 4134 
L 2272 0 
L 1638 0 
L 1638 4134 
L -19 4134 
L -19 4666 
z
" transform="scale(0.015625)"/>
       <path id="DejaVuSans-6e" d="M 3513 2113 
L 3513 0 
L 2938 0 
L 2938 2094 
Q 2938 2591 2744 2837 
Q 2550 3084 2163 3084 
Q 1697 3084 1428 2787 
Q 1159 2491 1159 1978 
L 1159 0 
L 581 0 
L 581 3500 
L 1159 3500 
L 1159 2956 
Q 1366 3272 1645 3428 
Q 1925 3584 2291 3584 
Q 2894 3584 3203 3211 
Q 3513 2838 3513 2113 
z
" transform="scale(0.015625)"/>
      </defs>
      <use xlink:href="#DejaVuSans-54"/>
      <use xlink:href="#DejaVuSans-69" x="57.958984"/>
      <use xlink:href="#DejaVuSans-74" x="85.742188"/>
      <use xlink:href="#DejaVuSans-61" x="124.951172"/>
      <use xlink:href="#DejaVuSans-6e" x="186.230469"/>
      <use xlink:href="#DejaVuSans-20" x="249.609375"/>
      <use xlink:href="#DejaVuSans-44" x="281.396484"/>
      <use xlink:href="#DejaVuSans-69" x="358.398438"/>
      <use xlink:href="#DejaVuSans-65" x="386.181641"/>
      <use xlink:href="#DejaVuSans-74" x="447.705078"/>
      <use xlink:href="#DejaVuSans-20" x="486.914062"/>
      <use xlink:href="#DejaVuSans-31" x="518.701172"/>
     </g>
    </g>
    <g id="line2d_28">
     <path d="M 607.378494 51.859006 
L 615.378494 51.859006 
L 623.378494 51.859006 
" style="fill: none; stroke: #c371d2; stroke-linejoin: miter"/>
    </g>
    <g id="text_14">
     <!-- Titan Diet 2 -->
     <g transform="translate(629.778494 54.659006)scale(0.08 -0.08)">
      <use xlink:href="#DejaVuSans-54"/>
      <use xlink:href="#DejaVuSans-69" x="57.958984"/>
      <use xlink:href="#DejaVuSans-74" x="85.742188"/>
      <use xlink:href="#DejaVuSans-61" x="124.951172"/>
      <use xlink:href="#DejaVuSans-6e" x="186.230469"/>
      <use xlink:href="#DejaVuSans-20" x="249.609375"/>
      <use xlink:href="#DejaVuSans-44" x="281.396484"/>
      <use xlink:href="#DejaVuSans-69" x="358.398438"/>
      <use xlink:href="#DejaVuSans-65" x="386.181641"/>
      <use xlink:href="#DejaVuSans-74" x="447.705078"/>
      <use xlink:href="#DejaVuSans-20" x="486.914062"/>
      <use xlink:href="#DejaVuSans-32" x="518.701172"/>
     </g>
    </g>
   </g>
  </g>
 </g>
 <defs>
  <clipPath id="p34047a0bd0">
   <rect x="25.219464" y="2.952756" width="663.02778" height="327.194488"/>
  </clipPath>
 </defs>
</svg>
