<?xml version="1.0" encoding="utf-8" standalone="no"?>
<!DOCTYPE svg PUBLIC "-//W3C//DTD SVG 1.1//EN"
  "http://www.w3.org/Graphics/SVG/1.1/DTD/svg11.dtd">
<svg xmlns:xlink="http://www.w3.org/1999/xlink" width="691.2pt" height="345.6pt" viewBox="0 0 691.2 345.6" xmlns="http://www.w3.org/2000/svg" version="1.1">
 <metadata>
  <rdf:RDF xmlns:dc="http://purl.org/dc/elements/1.1/" xmlns:cc="http://creativecommons.org/ns#" xmlns:rdf="http://www.w3.org/1999/02/22-rdf-syntax-ns#">
   <cc:Work>
    <dc:type rdf:resource="http://purl.org/dc/dcmitype/StillImage"/>
    <dc:date>2022-10-28T23:14:06.857415</dc:date>
    <dc:format>image/svg+xml</dc:format>
    <dc:creator>
     <cc:Agent>
      <dc:title>Matplotlib v3.6.1, https://matplotlib.org/</dc:title>
     </cc:Agent>
    </dc:creator>
   </cc:Work>
  </rdf:RDF>
 </metadata>
 <defs>
  <style type="text/css">*{stroke-linejoin: round; stroke-linecap: butt}</style>
 </defs>
 <g id="figure_1">
  <g id="patch_1">
   <path d="M 0 345.6 
L 691.2 345.6 
L 691.2 0 
L 0 0 
z
" style="fill: #ffffff"/>
  </g>
  <g id="axes_1">
   <g id="patch_2">
    <path d="M 25.268376 330.147244 
L 688.247244 330.147244 
L 688.247244 2.952756 
L 25.268376 2.952756 
z
" style="fill: #ffffff"/>
   </g>
   <g id="matplotlib.axis_1">
    <g id="xtick_1">
     <g id="line2d_1">
      <path d="M 133.318668 330.147244 
L 133.318668 2.952756 
" clip-path="url(#pe0f94fe3f3)" style="fill: none; stroke: #000000; stroke-opacity: 0.1; stroke-width: 0.5; stroke-linecap: square"/>
     </g>
     <g id="line2d_2">
      <defs>
       <path id="md92fcc2f98" d="M 0 0 
L 0 -2.5 
" style="stroke: #000000; stroke-width: 0.5"/>
      </defs>
      <g>
       <use xlink:href="#md92fcc2f98" x="133.318668" y="330.147244" style="stroke: #000000; stroke-width: 0.5"/>
      </g>
     </g>
     <g id="text_1">
      <!-- $-5$ -->
      <g transform="translate(127.398668 339.725994) scale(0.08 -0.08)">
       <defs>
        <path id="DejaVuSans-2212" d="M 678 2272 
L 4684 2272 
L 4684 1741 
L 678 1741 
L 678 2272 
z
" transform="scale(0.015625)"/>
        <path id="DejaVuSans-35" d="M 691 4666 
L 3169 4666 
L 3169 4134 
L 1269 4134 
L 1269 2991 
Q 1406 3038 1543 3061 
Q 1681 3084 1819 3084 
Q 2600 3084 3056 2656 
Q 3513 2228 3513 1497 
Q 3513 744 3044 326 
Q 2575 -91 1722 -91 
Q 1428 -91 1123 -41 
Q 819 9 494 109 
L 494 744 
Q 775 591 1075 516 
Q 1375 441 1709 441 
Q 2250 441 2565 725 
Q 2881 1009 2881 1497 
Q 2881 1984 2565 2268 
Q 2250 2553 1709 2553 
Q 1456 2553 1204 2497 
Q 953 2441 691 2322 
L 691 4666 
z
" transform="scale(0.015625)"/>
       </defs>
       <use xlink:href="#DejaVuSans-2212" transform="translate(0 0.09375)"/>
       <use xlink:href="#DejaVuSans-35" transform="translate(83.789062 0.09375)"/>
      </g>
     </g>
    </g>
    <g id="xtick_2">
     <g id="line2d_3">
      <path d="M 246.403416 330.147244 
L 246.403416 2.952756 
" clip-path="url(#pe0f94fe3f3)" style="fill: none; stroke: #000000; stroke-opacity: 0.1; stroke-width: 0.5; stroke-linecap: square"/>
     </g>
     <g id="line2d_4">
      <g>
       <use xlink:href="#md92fcc2f98" x="246.403416" y="330.147244" style="stroke: #000000; stroke-width: 0.5"/>
      </g>
     </g>
     <g id="text_2">
      <!-- $0$ -->
      <g transform="translate(243.843416 339.725994) scale(0.08 -0.08)">
       <defs>
        <path id="DejaVuSans-30" d="M 2034 4250 
Q 1547 4250 1301 3770 
Q 1056 3291 1056 2328 
Q 1056 1369 1301 889 
Q 1547 409 2034 409 
Q 2525 409 2770 889 
Q 3016 1369 3016 2328 
Q 3016 3291 2770 3770 
Q 2525 4250 2034 4250 
z
M 2034 4750 
Q 2819 4750 3233 4129 
Q 3647 3509 3647 2328 
Q 3647 1150 3233 529 
Q 2819 -91 2034 -91 
Q 1250 -91 836 529 
Q 422 1150 422 2328 
Q 422 3509 836 4129 
Q 1250 4750 2034 4750 
z
" transform="scale(0.015625)"/>
       </defs>
       <use xlink:href="#DejaVuSans-30" transform="translate(0 0.78125)"/>
      </g>
     </g>
    </g>
    <g id="xtick_3">
     <g id="line2d_5">
      <path d="M 359.488164 330.147244 
L 359.488164 2.952756 
" clip-path="url(#pe0f94fe3f3)" style="fill: none; stroke: #000000; stroke-opacity: 0.1; stroke-width: 0.5; stroke-linecap: square"/>
     </g>
     <g id="line2d_6">
      <g>
       <use xlink:href="#md92fcc2f98" x="359.488164" y="330.147244" style="stroke: #000000; stroke-width: 0.5"/>
      </g>
     </g>
     <g id="text_3">
      <!-- $5$ -->
      <g transform="translate(356.928164 339.725994) scale(0.08 -0.08)">
       <use xlink:href="#DejaVuSans-35" transform="translate(0 0.09375)"/>
      </g>
     </g>
    </g>
    <g id="xtick_4">
     <g id="line2d_7">
      <path d="M 472.572911 330.147244 
L 472.572911 2.952756 
" clip-path="url(#pe0f94fe3f3)" style="fill: none; stroke: #000000; stroke-opacity: 0.1; stroke-width: 0.5; stroke-linecap: square"/>
     </g>
     <g id="line2d_8">
      <g>
       <use xlink:href="#md92fcc2f98" x="472.572911" y="330.147244" style="stroke: #000000; stroke-width: 0.5"/>
      </g>
     </g>
     <g id="text_4">
      <!-- $10$ -->
      <g transform="translate(467.452911 339.725994) scale(0.08 -0.08)">
       <defs>
        <path id="DejaVuSans-31" d="M 794 531 
L 1825 531 
L 1825 4091 
L 703 3866 
L 703 4441 
L 1819 4666 
L 2450 4666 
L 2450 531 
L 3481 531 
L 3481 0 
L 794 0 
L 794 531 
z
" transform="scale(0.015625)"/>
       </defs>
       <use xlink:href="#DejaVuSans-31" transform="translate(0 0.78125)"/>
       <use xlink:href="#DejaVuSans-30" transform="translate(63.623047 0.78125)"/>
      </g>
     </g>
    </g>
    <g id="xtick_5">
     <g id="line2d_9">
      <path d="M 585.657659 330.147244 
L 585.657659 2.952756 
" clip-path="url(#pe0f94fe3f3)" style="fill: none; stroke: #000000; stroke-opacity: 0.1; stroke-width: 0.5; stroke-linecap: square"/>
     </g>
     <g id="line2d_10">
      <g>
       <use xlink:href="#md92fcc2f98" x="585.657659" y="330.147244" style="stroke: #000000; stroke-width: 0.5"/>
      </g>
     </g>
     <g id="text_5">
      <!-- $15$ -->
      <g transform="translate(580.537659 339.725994) scale(0.08 -0.08)">
       <use xlink:href="#DejaVuSans-31" transform="translate(0 0.09375)"/>
       <use xlink:href="#DejaVuSans-35" transform="translate(63.623047 0.09375)"/>
      </g>
     </g>
    </g>
   </g>
   <g id="matplotlib.axis_2">
    <g id="ytick_1">
     <g id="line2d_11">
      <path d="M 25.268376 320.890047 
L 688.247244 320.890047 
" clip-path="url(#pe0f94fe3f3)" style="fill: none; stroke: #000000; stroke-opacity: 0.1; stroke-width: 0.5; stroke-linecap: square"/>
     </g>
     <g id="line2d_12">
      <defs>
       <path id="me9a90a091b" d="M 0 0 
L 2.5 0 
" style="stroke: #000000; stroke-width: 0.5"/>
      </defs>
      <g>
       <use xlink:href="#me9a90a091b" x="25.268376" y="320.890047" style="stroke: #000000; stroke-width: 0.5"/>
      </g>
     </g>
     <g id="text_6">
      <!-- $0.00$ -->
      <g transform="translate(3.928376 323.929422) scale(0.08 -0.08)">
       <defs>
        <path id="DejaVuSans-2e" d="M 684 794 
L 1344 794 
L 1344 0 
L 684 0 
L 684 794 
z
" transform="scale(0.015625)"/>
       </defs>
       <use xlink:href="#DejaVuSans-30" transform="translate(0 0.78125)"/>
       <use xlink:href="#DejaVuSans-2e" transform="translate(63.623047 0.78125)"/>
       <use xlink:href="#DejaVuSans-30" transform="translate(95.410156 0.78125)"/>
       <use xlink:href="#DejaVuSans-30" transform="translate(159.033203 0.78125)"/>
      </g>
     </g>
    </g>
    <g id="ytick_2">
     <g id="line2d_13">
      <path d="M 25.268376 247.184175 
L 688.247244 247.184175 
" clip-path="url(#pe0f94fe3f3)" style="fill: none; stroke: #000000; stroke-opacity: 0.1; stroke-width: 0.5; stroke-linecap: square"/>
     </g>
     <g id="line2d_14">
      <g>
       <use xlink:href="#me9a90a091b" x="25.268376" y="247.184175" style="stroke: #000000; stroke-width: 0.5"/>
      </g>
     </g>
     <g id="text_7">
      <!-- $0.05$ -->
      <g transform="translate(3.928376 250.22355) scale(0.08 -0.08)">
       <use xlink:href="#DejaVuSans-30" transform="translate(0 0.78125)"/>
       <use xlink:href="#DejaVuSans-2e" transform="translate(63.623047 0.78125)"/>
       <use xlink:href="#DejaVuSans-30" transform="translate(95.410156 0.78125)"/>
       <use xlink:href="#DejaVuSans-35" transform="translate(159.033203 0.78125)"/>
      </g>
     </g>
    </g>
    <g id="ytick_3">
     <g id="line2d_15">
      <path d="M 25.268376 173.478302 
L 688.247244 173.478302 
" clip-path="url(#pe0f94fe3f3)" style="fill: none; stroke: #000000; stroke-opacity: 0.1; stroke-width: 0.5; stroke-linecap: square"/>
     </g>
     <g id="line2d_16">
      <g>
       <use xlink:href="#me9a90a091b" x="25.268376" y="173.478302" style="stroke: #000000; stroke-width: 0.5"/>
      </g>
     </g>
     <g id="text_8">
      <!-- $0.10$ -->
      <g transform="translate(3.928376 176.517677) scale(0.08 -0.08)">
       <use xlink:href="#DejaVuSans-30" transform="translate(0 0.78125)"/>
       <use xlink:href="#DejaVuSans-2e" transform="translate(63.623047 0.78125)"/>
       <use xlink:href="#DejaVuSans-31" transform="translate(95.410156 0.78125)"/>
       <use xlink:href="#DejaVuSans-30" transform="translate(159.033203 0.78125)"/>
      </g>
     </g>
    </g>
    <g id="ytick_4">
     <g id="line2d_17">
      <path d="M 25.268376 99.77243 
L 688.247244 99.77243 
" clip-path="url(#pe0f94fe3f3)" style="fill: none; stroke: #000000; stroke-opacity: 0.1; stroke-width: 0.5; stroke-linecap: square"/>
     </g>
     <g id="line2d_18">
      <g>
       <use xlink:href="#me9a90a091b" x="25.268376" y="99.77243" style="stroke: #000000; stroke-width: 0.5"/>
      </g>
     </g>
     <g id="text_9">
      <!-- $0.15$ -->
      <g transform="translate(3.928376 102.811805) scale(0.08 -0.08)">
       <use xlink:href="#DejaVuSans-30" transform="translate(0 0.78125)"/>
       <use xlink:href="#DejaVuSans-2e" transform="translate(63.623047 0.78125)"/>
       <use xlink:href="#DejaVuSans-31" transform="translate(95.410156 0.78125)"/>
       <use xlink:href="#DejaVuSans-35" transform="translate(159.033203 0.78125)"/>
      </g>
     </g>
    </g>
    <g id="ytick_5">
     <g id="line2d_19">
      <path d="M 25.268376 26.066557 
L 688.247244 26.066557 
" clip-path="url(#pe0f94fe3f3)" style="fill: none; stroke: #000000; stroke-opacity: 0.1; stroke-width: 0.5; stroke-linecap: square"/>
     </g>
     <g id="line2d_20">
      <g>
       <use xlink:href="#me9a90a091b" x="25.268376" y="26.066557" style="stroke: #000000; stroke-width: 0.5"/>
      </g>
     </g>
     <g id="text_10">
      <!-- $0.20$ -->
      <g transform="translate(4.328376 29.105932) scale(0.08 -0.08)">
       <defs>
        <path id="DejaVuSans-32" d="M 1228 531 
L 3431 531 
L 3431 0 
L 469 0 
L 469 531 
Q 828 903 1448 1529 
Q 2069 2156 2228 2338 
Q 2531 2678 2651 2914 
Q 2772 3150 2772 3378 
Q 2772 3750 2511 3984 
Q 2250 4219 1831 4219 
Q 1534 4219 1204 4116 
Q 875 4013 500 3803 
L 500 4441 
Q 881 4594 1212 4672 
Q 1544 4750 1819 4750 
Q 2544 4750 2975 4387 
Q 3406 4025 3406 3419 
Q 3406 3131 3298 2873 
Q 3191 2616 2906 2266 
Q 2828 2175 2409 1742 
Q 1991 1309 1228 531 
z
" transform="scale(0.015625)"/>
       </defs>
       <use xlink:href="#DejaVuSans-30" transform="translate(0 0.78125)"/>
       <use xlink:href="#DejaVuSans-2e" transform="translate(63.623047 0.78125)"/>
       <use xlink:href="#DejaVuSans-32" transform="translate(89.910156 0.78125)"/>
       <use xlink:href="#DejaVuSans-30" transform="translate(153.533203 0.78125)"/>
      </g>
     </g>
    </g>
   </g>
   <g id="line2d_21">
    <path d="M 75.342539 320.885277 
L 92.183484 320.790353 
L 99.668348 320.540704 
L 105.281996 320.110281 
L 109.024428 319.642724 
L 112.76686 318.996716 
L 116.509292 318.162871 
L 122.122941 316.616399 
L 129.607805 314.410242 
L 133.350237 313.506766 
L 137.092669 312.891968 
L 140.835101 312.634813 
L 144.577533 312.733007 
L 148.319966 313.097517 
L 153.933614 313.735642 
L 155.80483 313.842691 
L 157.676046 313.832875 
L 159.547262 313.664668 
L 161.418478 313.295727 
L 163.289694 312.683818 
L 165.16091 311.787798 
L 167.032126 310.568609 
L 168.903342 308.990316 
L 170.774558 307.021147 
L 172.645774 304.634519 
L 174.51699 301.809987 
L 176.388206 298.534068 
L 178.259422 294.800857 
L 180.130639 290.612371 
L 182.001855 285.978568 
L 183.873071 280.916992 
L 185.744287 275.452048 
L 189.486719 263.437258 
L 193.229151 250.219647 
L 196.971583 236.105877 
L 202.585231 213.862652 
L 221.297392 138.161615 
L 225.039824 124.005907 
L 228.782256 110.667354 
L 232.524688 98.403026 
L 234.395904 92.759824 
L 236.26712 87.490961 
L 238.138336 82.633635 
L 240.009552 78.224815 
L 241.880769 74.299918 
L 243.751985 70.891012 
L 245.623201 68.024626 
L 247.494417 65.719317 
L 249.365633 63.983216 
L 251.236849 62.811807 
L 253.108065 62.186247 
L 254.979281 62.072472 
L 256.850497 62.421317 
L 258.721713 63.169764 
L 260.592929 64.243348 
L 262.464145 65.559607 
L 271.820225 72.90637 
L 273.691442 74.074121 
L 275.562658 75.062056 
L 277.433874 75.874942 
L 281.176306 77.089244 
L 286.789954 78.685699 
L 288.66117 79.428827 
L 290.532386 80.394108 
L 292.403602 81.644276 
L 294.274818 83.233271 
L 296.146034 85.204614 
L 298.01725 87.590709 
L 299.888466 90.412952 
L 301.759682 93.682476 
L 303.630899 97.401319 
L 305.502115 101.56377 
L 307.373331 106.157703 
L 309.244547 111.165725 
L 311.115763 116.566043 
L 314.858195 128.437476 
L 318.600627 141.524608 
L 322.343059 155.524207 
L 337.312788 213.061727 
L 341.05522 225.845471 
L 344.797652 237.310412 
L 346.668868 242.479047 
L 348.540084 247.248329 
L 350.4113 251.610488 
L 352.282516 255.566474 
L 354.153732 259.126453 
L 356.024948 262.309998 
L 357.896164 265.145884 
L 359.76738 267.671381 
L 361.638596 269.931032 
L 365.381028 273.85643 
L 376.608325 284.50771 
L 380.350757 288.601662 
L 384.093189 293.049903 
L 393.449269 304.439645 
L 397.191702 308.460335 
L 399.062918 310.256023 
L 400.934134 311.890145 
L 402.80535 313.356078 
L 404.676566 314.652619 
L 406.547782 315.783369 
L 408.418998 316.75593 
L 410.290214 317.581004 
L 412.16143 318.271477 
L 415.903862 319.305913 
L 419.646294 319.975223 
L 423.388726 320.385976 
L 429.002375 320.701432 
L 436.487239 320.846994 
L 447.714535 320.885078 
L 447.714535 320.885078 
" clip-path="url(#pe0f94fe3f3)" style="fill: none; stroke: #009afa"/>
   </g>
   <g id="line2d_22">
    <path d="M 107.147829 320.883737 
L 120.151185 320.798263 
L 126.652863 320.534335 
L 129.903703 320.237264 
L 133.154542 319.745556 
L 136.405381 318.970699 
L 139.65622 317.806671 
L 141.281639 317.042429 
L 142.907059 316.136896 
L 144.532478 315.075592 
L 146.157898 313.844812 
L 147.783318 312.432007 
L 149.408737 310.826135 
L 151.034157 309.017955 
L 152.659576 307.000271 
L 154.284996 304.768129 
L 155.910415 302.318978 
L 157.535835 299.652831 
L 160.786674 293.683583 
L 164.037513 286.92036 
L 167.288352 279.483135 
L 172.164611 267.512515 
L 177.040869 255.493703 
L 180.291708 248.102879 
L 181.917128 244.744277 
L 183.542547 241.667667 
L 185.167967 238.905846 
L 186.793387 236.480563 
L 188.418806 234.400824 
L 190.044226 232.661993 
L 191.669645 231.245826 
L 193.295065 230.121498 
L 194.920484 229.24755 
L 196.545904 228.574605 
L 199.796743 227.614177 
L 204.673002 226.353759 
L 207.923841 225.157503 
L 209.54926 224.37674 
L 211.17468 223.457046 
L 212.800099 222.391089 
L 214.425519 221.173243 
L 216.050938 219.797315 
L 217.676358 218.254586 
L 219.301777 216.532385 
L 220.927197 214.613344 
L 222.552617 212.47535 
L 224.178036 210.092179 
L 225.803456 207.434661 
L 227.428875 204.472233 
L 229.054295 201.174667 
L 230.679714 197.513809 
L 232.305134 193.465159 
L 233.930553 189.009209 
L 235.555973 184.132474 
L 237.181392 178.828224 
L 238.806812 173.096964 
L 242.057651 160.393155 
L 245.30849 146.177567 
L 248.559329 130.730128 
L 253.435588 106.150785 
L 258.311846 81.466778 
L 261.562686 65.922385 
L 264.813525 51.74658 
L 266.438944 45.314872 
L 268.064364 39.381234 
L 269.689783 33.980747 
L 271.315203 29.140723 
L 272.940622 24.881752 
L 274.566042 21.219133 
L 276.191461 18.164495 
L 277.816881 15.727418 
L 279.442301 13.91683 
L 281.06772 12.742001 
L 282.69314 12.212977 
L 284.318559 12.340388 
L 285.943979 13.134601 
L 287.569398 14.604303 
L 289.194818 16.754651 
L 290.820237 19.585193 
L 292.445657 23.087805 
L 294.071076 27.244901 
L 295.696496 32.028144 
L 297.321916 37.397867 
L 298.947335 43.303317 
L 302.198174 56.470351 
L 305.449013 70.962197 
L 318.45237 131.313584 
L 323.328628 152.074491 
L 326.579467 165.10664 
L 329.830306 177.4987 
L 333.081146 189.234173 
L 336.331985 200.268591 
L 339.582824 210.543246 
L 342.833663 220.006547 
L 346.084502 228.633748 
L 349.335341 236.441049 
L 352.58618 243.494074 
L 355.837019 249.910949 
L 359.087858 255.857797 
L 373.716634 281.678873 
L 381.843732 296.558544 
L 385.094571 301.972122 
L 388.34541 306.753032 
L 389.97083 308.858925 
L 391.596249 310.760827 
L 393.221669 312.455311 
L 394.847088 313.944472 
L 396.472508 315.235316 
L 398.097927 316.338936 
L 399.723347 317.269556 
L 401.348766 318.043543 
L 402.974186 318.678448 
L 406.225025 319.602106 
L 409.475864 320.175421 
L 412.726703 320.512423 
L 417.602962 320.757758 
L 425.730059 320.871604 
L 430.606318 320.883248 
L 430.606318 320.883248 
" clip-path="url(#pe0f94fe3f3)" style="fill: none; stroke: #e36f47"/>
   </g>
   <g id="patch_3">
    <path d="M 25.268376 330.147244 
L 25.268376 2.952756 
" style="fill: none; stroke: #000000; stroke-linejoin: miter; stroke-linecap: square"/>
   </g>
   <g id="patch_4">
    <path d="M 25.268376 330.147244 
L 688.247244 330.147244 
" style="fill: none; stroke: #000000; stroke-linejoin: miter; stroke-linecap: square"/>
   </g>
   <g id="line2d_23">
    <path d="M 59.405778 320.886136 
L 84.648607 320.774606 
L 94.745738 320.502158 
L 102.318587 320.031894 
L 107.367152 319.509388 
L 112.415718 318.760716 
L 117.464284 317.73921 
L 122.51285 316.411437 
L 127.561415 314.765728 
L 132.609981 312.817133 
L 137.658547 310.605836 
L 142.707112 308.187496 
L 150.279961 304.285193 
L 157.85281 300.106729 
L 162.901375 297.103396 
L 167.949941 293.808988 
L 172.998507 290.082162 
L 175.52279 288.008386 
L 178.047073 285.769503 
L 180.571355 283.348883 
L 183.095638 280.732441 
L 185.619921 277.9093 
L 188.144204 274.87233 
L 190.668487 271.618562 
L 193.19277 268.149481 
L 195.717053 264.4712 
L 200.765618 256.535061 
L 205.814184 247.952886 
L 213.387033 234.355673 
L 220.959881 220.784165 
L 226.008447 212.328967 
L 228.53273 208.412168 
L 231.057013 204.756762 
L 233.581296 201.397618 
L 236.105578 198.362973 
L 238.629861 195.672801 
L 241.154144 193.337327 
L 243.678427 191.355785 
L 246.20271 189.715516 
L 248.726993 188.391491 
L 251.251276 187.346318 
L 253.775559 186.530785 
L 258.824124 185.339734 
L 263.87269 184.242486 
L 266.396973 183.52785 
L 268.921256 182.594693 
L 271.445539 181.367419 
L 273.969821 179.778643 
L 276.494104 177.772424 
L 279.018387 175.307271 
L 281.54267 172.358801 
L 284.066953 168.921912 
L 286.591236 165.012358 
L 289.115519 160.667581 
L 291.639801 155.946726 
L 296.688367 145.715519 
L 301.736933 135.167975 
L 304.261216 130.097606 
L 306.785499 125.346363 
L 309.309782 121.050082 
L 311.834064 117.33654 
L 314.358347 114.320128 
L 316.88263 112.097047 
L 319.406913 110.741288 
L 321.931196 110.30164 
L 324.455479 110.799908 
L 326.979762 112.230419 
L 329.504044 114.560829 
L 332.028327 117.734159 
L 334.55261 121.671896 
L 337.076893 126.27795 
L 339.601176 131.443212 
L 342.125459 137.050439 
L 347.174025 149.110571 
L 354.746873 167.641917 
L 359.795439 179.249423 
L 362.319722 184.653278 
L 364.844005 189.752278 
L 367.368287 194.538644 
L 369.89257 199.01986 
L 372.416853 203.216809 
L 374.941136 207.16148 
L 379.989702 214.461442 
L 387.56255 224.651713 
L 395.135399 234.948582 
L 400.183965 242.199248 
L 407.756813 253.595449 
L 415.329662 264.968121 
L 420.378228 272.034165 
L 422.90251 275.303713 
L 425.426793 278.360604 
L 427.951076 281.186245 
L 430.475359 283.770389 
L 432.999642 286.111383 
L 435.523925 288.215885 
L 438.048208 290.098125 
L 440.57249 291.778746 
L 443.096773 293.283357 
L 448.145339 295.881788 
L 453.193905 298.133552 
L 468.339602 304.622546 
L 486.009582 312.585624 
L 491.058148 314.542236 
L 496.106714 316.216011 
L 501.155279 317.578452 
L 506.203845 318.634317 
L 511.252411 319.413875 
L 516.300976 319.962519 
L 523.873825 320.46248 
L 531.446674 320.710675 
L 544.068088 320.855922 
L 561.738068 320.886297 
L 561.738068 320.886297 
" clip-path="url(#pe0f94fe3f3)" style="fill: none; stroke: #3ea44e"/>
   </g>
   <g id="line2d_24">
    <path d="M 44.031929 320.887023 
L 72.318692 320.803314 
L 84.890587 320.567843 
L 94.319508 320.15894 
L 103.748429 319.449808 
L 113.17735 318.426782 
L 132.035192 316.169051 
L 138.32114 315.709485 
L 144.607087 315.535441 
L 150.893034 315.656533 
L 157.178982 316.009721 
L 169.750876 316.83435 
L 176.036824 316.91494 
L 179.179797 316.780583 
L 182.322771 316.49682 
L 185.465745 316.041338 
L 188.608718 315.394463 
L 191.751692 314.539717 
L 194.894666 313.464365 
L 198.037639 312.159937 
L 201.180613 310.622716 
L 204.323587 308.854153 
L 207.46656 306.861154 
L 210.609534 304.656214 
L 213.752508 302.257316 
L 220.038455 296.974566 
L 226.324403 291.245311 
L 238.896297 279.492503 
L 245.182245 273.889377 
L 251.468192 268.578259 
L 270.326034 253.117771 
L 276.611981 247.472761 
L 282.897929 241.42072 
L 292.32685 231.826157 
L 301.755771 222.187952 
L 311.184692 212.878687 
L 320.613613 203.586247 
L 326.89956 197.034494 
L 333.185508 189.986171 
L 339.471455 182.417669 
L 348.900376 170.459963 
L 355.186323 162.532731 
L 361.472271 155.044438 
L 364.615244 151.560399 
L 367.758218 148.291189 
L 370.901192 145.262092 
L 374.044165 142.495048 
L 377.187139 140.010278 
L 380.330113 137.828064 
L 383.473086 135.970367 
L 386.61606 134.461999 
L 389.759034 133.331124 
L 392.902008 132.608946 
L 396.044981 132.328594 
L 399.187955 132.523278 
L 402.330929 133.223939 
L 405.473902 134.456661 
L 408.616876 136.240172 
L 411.75985 138.58373 
L 414.902823 141.485673 
L 418.045797 144.932789 
L 421.188771 148.900601 
L 424.331744 153.354503 
L 427.474718 158.251607 
L 430.617692 163.543079 
L 433.760665 169.176661 
L 440.046613 181.258272 
L 446.33256 194.092042 
L 468.333376 240.192127 
L 474.619323 252.512648 
L 477.762297 258.354672 
L 480.905271 263.941359 
L 484.048244 269.244672 
L 487.191218 274.241307 
L 490.334192 278.913348 
L 493.477165 283.248494 
L 496.620139 287.239824 
L 499.763113 290.885194 
L 502.906086 294.186367 
L 506.04906 297.148068 
L 509.192034 299.777126 
L 512.335007 302.081848 
L 515.477981 304.071735 
L 518.620955 305.757571 
L 521.763928 307.15184 
L 524.906902 308.26938 
L 528.049876 309.128128 
L 531.192849 309.749802 
L 534.335823 310.160337 
L 537.478797 310.389967 
L 543.764744 310.446265 
L 559.479612 310.007248 
L 565.76556 310.276109 
L 568.908534 310.578129 
L 575.194481 311.513761 
L 581.480428 312.809271 
L 600.33827 317.21934 
L 606.624218 318.381163 
L 612.910165 319.274335 
L 619.196112 319.909916 
L 625.48206 320.330102 
L 634.910981 320.674078 
L 647.482875 320.840966 
L 669.483691 320.886921 
L 669.483691 320.886921 
" clip-path="url(#pe0f94fe3f3)" style="fill: none; stroke: #c371d2"/>
   </g>
   <g id="legend_1">
    <g id="patch_5">
     <path d="M 600.978494 62.722756 
L 684.247244 62.722756 
L 684.247244 6.952756 
L 600.978494 6.952756 
z
" style="fill: #ffffff; stroke: #000000; stroke-linejoin: miter"/>
    </g>
    <g id="line2d_25">
     <path d="M 607.378494 16.631506 
L 615.378494 16.631506 
L 623.378494 16.631506 
" style="fill: none; stroke: #009afa; stroke-linejoin: miter"/>
    </g>
    <g id="text_11">
     <!-- Earth Diet 1 -->
     <g transform="translate(629.778494 19.431506) scale(0.08 -0.08)">
      <defs>
       <path id="DejaVuSans-45" d="M 628 4666 
L 3578 4666 
L 3578 4134 
L 1259 4134 
L 1259 2753 
L 3481 2753 
L 3481 2222 
L 1259 2222 
L 1259 531 
L 3634 531 
L 3634 0 
L 628 0 
L 628 4666 
z
" transform="scale(0.015625)"/>
       <path id="DejaVuSans-61" d="M 2194 1759 
Q 1497 1759 1228 1600 
Q 959 1441 959 1056 
Q 959 750 1161 570 
Q 1363 391 1709 391 
Q 2188 391 2477 730 
Q 2766 1069 2766 1631 
L 2766 1759 
L 2194 1759 
z
M 3341 1997 
L 3341 0 
L 2766 0 
L 2766 531 
Q 2569 213 2275 61 
Q 1981 -91 1556 -91 
Q 1019 -91 701 211 
Q 384 513 384 1019 
Q 384 1609 779 1909 
Q 1175 2209 1959 2209 
L 2766 2209 
L 2766 2266 
Q 2766 2663 2505 2880 
Q 2244 3097 1772 3097 
Q 1472 3097 1187 3025 
Q 903 2953 641 2809 
L 641 3341 
Q 956 3463 1253 3523 
Q 1550 3584 1831 3584 
Q 2591 3584 2966 3190 
Q 3341 2797 3341 1997 
z
" transform="scale(0.015625)"/>
       <path id="DejaVuSans-72" d="M 2631 2963 
Q 2534 3019 2420 3045 
Q 2306 3072 2169 3072 
Q 1681 3072 1420 2755 
Q 1159 2438 1159 1844 
L 1159 0 
L 581 0 
L 581 3500 
L 1159 3500 
L 1159 2956 
Q 1341 3275 1631 3429 
Q 1922 3584 2338 3584 
Q 2397 3584 2469 3576 
Q 2541 3569 2628 3553 
L 2631 2963 
z
" transform="scale(0.015625)"/>
       <path id="DejaVuSans-74" d="M 1172 4494 
L 1172 3500 
L 2356 3500 
L 2356 3053 
L 1172 3053 
L 1172 1153 
Q 1172 725 1289 603 
Q 1406 481 1766 481 
L 2356 481 
L 2356 0 
L 1766 0 
Q 1100 0 847 248 
Q 594 497 594 1153 
L 594 3053 
L 172 3053 
L 172 3500 
L 594 3500 
L 594 4494 
L 1172 4494 
z
" transform="scale(0.015625)"/>
       <path id="DejaVuSans-68" d="M 3513 2113 
L 3513 0 
L 2938 0 
L 2938 2094 
Q 2938 2591 2744 2837 
Q 2550 3084 2163 3084 
Q 1697 3084 1428 2787 
Q 1159 2491 1159 1978 
L 1159 0 
L 581 0 
L 581 4863 
L 1159 4863 
L 1159 2956 
Q 1366 3272 1645 3428 
Q 1925 3584 2291 3584 
Q 2894 3584 3203 3211 
Q 3513 2838 3513 2113 
z
" transform="scale(0.015625)"/>
       <path id="DejaVuSans-20" transform="scale(0.015625)"/>
       <path id="DejaVuSans-44" d="M 1259 4147 
L 1259 519 
L 2022 519 
Q 2988 519 3436 956 
Q 3884 1394 3884 2338 
Q 3884 3275 3436 3711 
Q 2988 4147 2022 4147 
L 1259 4147 
z
M 628 4666 
L 1925 4666 
Q 3281 4666 3915 4102 
Q 4550 3538 4550 2338 
Q 4550 1131 3912 565 
Q 3275 0 1925 0 
L 628 0 
L 628 4666 
z
" transform="scale(0.015625)"/>
       <path id="DejaVuSans-69" d="M 603 3500 
L 1178 3500 
L 1178 0 
L 603 0 
L 603 3500 
z
M 603 4863 
L 1178 4863 
L 1178 4134 
L 603 4134 
L 603 4863 
z
" transform="scale(0.015625)"/>
       <path id="DejaVuSans-65" d="M 3597 1894 
L 3597 1613 
L 953 1613 
Q 991 1019 1311 708 
Q 1631 397 2203 397 
Q 2534 397 2845 478 
Q 3156 559 3463 722 
L 3463 178 
Q 3153 47 2828 -22 
Q 2503 -91 2169 -91 
Q 1331 -91 842 396 
Q 353 884 353 1716 
Q 353 2575 817 3079 
Q 1281 3584 2069 3584 
Q 2775 3584 3186 3129 
Q 3597 2675 3597 1894 
z
M 3022 2063 
Q 3016 2534 2758 2815 
Q 2500 3097 2075 3097 
Q 1594 3097 1305 2825 
Q 1016 2553 972 2059 
L 3022 2063 
z
" transform="scale(0.015625)"/>
      </defs>
      <use xlink:href="#DejaVuSans-45"/>
      <use xlink:href="#DejaVuSans-61" x="63.183594"/>
      <use xlink:href="#DejaVuSans-72" x="124.462891"/>
      <use xlink:href="#DejaVuSans-74" x="165.576172"/>
      <use xlink:href="#DejaVuSans-68" x="204.785156"/>
      <use xlink:href="#DejaVuSans-20" x="268.164062"/>
      <use xlink:href="#DejaVuSans-44" x="299.951172"/>
      <use xlink:href="#DejaVuSans-69" x="376.953125"/>
      <use xlink:href="#DejaVuSans-65" x="404.736328"/>
      <use xlink:href="#DejaVuSans-74" x="466.259766"/>
      <use xlink:href="#DejaVuSans-20" x="505.46875"/>
      <use xlink:href="#DejaVuSans-31" x="537.255859"/>
     </g>
    </g>
    <g id="line2d_26">
     <path d="M 607.378494 28.374006 
L 615.378494 28.374006 
L 623.378494 28.374006 
" style="fill: none; stroke: #e36f47; stroke-linejoin: miter"/>
    </g>
    <g id="text_12">
     <!-- Earth Diet 2 -->
     <g transform="translate(629.778494 31.174006) scale(0.08 -0.08)">
      <use xlink:href="#DejaVuSans-45"/>
      <use xlink:href="#DejaVuSans-61" x="63.183594"/>
      <use xlink:href="#DejaVuSans-72" x="124.462891"/>
      <use xlink:href="#DejaVuSans-74" x="165.576172"/>
      <use xlink:href="#DejaVuSans-68" x="204.785156"/>
      <use xlink:href="#DejaVuSans-20" x="268.164062"/>
      <use xlink:href="#DejaVuSans-44" x="299.951172"/>
      <use xlink:href="#DejaVuSans-69" x="376.953125"/>
      <use xlink:href="#DejaVuSans-65" x="404.736328"/>
      <use xlink:href="#DejaVuSans-74" x="466.259766"/>
      <use xlink:href="#DejaVuSans-20" x="505.46875"/>
      <use xlink:href="#DejaVuSans-32" x="537.255859"/>
     </g>
    </g>
    <g id="line2d_27">
     <path d="M 607.378494 40.116506 
L 615.378494 40.116506 
L 623.378494 40.116506 
" style="fill: none; stroke: #3ea44e; stroke-linejoin: miter"/>
    </g>
    <g id="text_13">
     <!-- Titan Diet 1 -->
     <g transform="translate(629.778494 42.916506) scale(0.08 -0.08)">
      <defs>
       <path id="DejaVuSans-54" d="M -19 4666 
L 3928 4666 
L 3928 4134 
L 2272 4134 
L 2272 0 
L 1638 0 
L 1638 4134 
L -19 4134 
L -19 4666 
z
" transform="scale(0.015625)"/>
       <path id="DejaVuSans-6e" d="M 3513 2113 
L 3513 0 
L 2938 0 
L 2938 2094 
Q 2938 2591 2744 2837 
Q 2550 3084 2163 3084 
Q 1697 3084 1428 2787 
Q 1159 2491 1159 1978 
L 1159 0 
L 581 0 
L 581 3500 
L 1159 3500 
L 1159 2956 
Q 1366 3272 1645 3428 
Q 1925 3584 2291 3584 
Q 2894 3584 3203 3211 
Q 3513 2838 3513 2113 
z
" transform="scale(0.015625)"/>
      </defs>
      <use xlink:href="#DejaVuSans-54"/>
      <use xlink:href="#DejaVuSans-69" x="57.958984"/>
      <use xlink:href="#DejaVuSans-74" x="85.742188"/>
      <use xlink:href="#DejaVuSans-61" x="124.951172"/>
      <use xlink:href="#DejaVuSans-6e" x="186.230469"/>
      <use xlink:href="#DejaVuSans-20" x="249.609375"/>
      <use xlink:href="#DejaVuSans-44" x="281.396484"/>
      <use xlink:href="#DejaVuSans-69" x="358.398438"/>
      <use xlink:href="#DejaVuSans-65" x="386.181641"/>
      <use xlink:href="#DejaVuSans-74" x="447.705078"/>
      <use xlink:href="#DejaVuSans-20" x="486.914062"/>
      <use xlink:href="#DejaVuSans-31" x="518.701172"/>
     </g>
    </g>
    <g id="line2d_28">
     <path d="M 607.378494 51.859006 
L 615.378494 51.859006 
L 623.378494 51.859006 
" style="fill: none; stroke: #c371d2; stroke-linejoin: miter"/>
    </g>
    <g id="text_14">
     <!-- Titan Diet 2 -->
     <g transform="translate(629.778494 54.659006) scale(0.08 -0.08)">
      <use xlink:href="#DejaVuSans-54"/>
      <use xlink:href="#DejaVuSans-69" x="57.958984"/>
      <use xlink:href="#DejaVuSans-74" x="85.742188"/>
      <use xlink:href="#DejaVuSans-61" x="124.951172"/>
      <use xlink:href="#DejaVuSans-6e" x="186.230469"/>
      <use xlink:href="#DejaVuSans-20" x="249.609375"/>
      <use xlink:href="#DejaVuSans-44" x="281.396484"/>
      <use xlink:href="#DejaVuSans-69" x="358.398438"/>
      <use xlink:href="#DejaVuSans-65" x="386.181641"/>
      <use xlink:href="#DejaVuSans-74" x="447.705078"/>
      <use xlink:href="#DejaVuSans-20" x="486.914062"/>
      <use xlink:href="#DejaVuSans-32" x="518.701172"/>
     </g>
    </g>
   </g>
  </g>
 </g>
 <defs>
  <clipPath id="pe0f94fe3f3">
   <rect x="25.268376" y="2.952756" width="662.978868" height="327.194488"/>
  </clipPath>
 </defs>
</svg>
